<svg width="480" height="360" viewBox="0 0 480 360" fill="none" xmlns="http://www.w3.org/2000/svg">
  <rect width="480" height="360" rx="36" fill="#F0FDFA"/>
  <circle cx="396" cy="284" r="88" fill="#CCFBF1" opacity="0.9"/>
  <circle cx="76" cy="80" r="82" fill="#BAE6FD" opacity="0.8"/>
  <path d="M168 144c0-62 32-101 76-101 45 0 77 39 77 101v70H168v-70Z" fill="#334155"/>
  <circle cx="244" cy="129" r="60" fill="#F1C6A8"/>
  <path d="M172 323c12-74 51-108 72-108 20 0 60 34 72 108H172Z" fill="#FFFFFF"/>
  <path d="M206 247l38 54 38-54" stroke="#0D9488" stroke-width="14" stroke-linecap="round" stroke-linejoin="round"/>
  <circle cx="222" cy="128" r="6" fill="#0F172A"/><circle cx="268" cy="128" r="6" fill="#0F172A"/>
  <path d="M228 160c10 8 24 8 34 0" stroke="#0F172A" stroke-width="6" stroke-linecap="round"/>
  <path d="M187 102c24-39 76-45 116 1-19 8-77 13-116-1Z" fill="#475569"/>
</svg>
